<svg xmlns="http://www.w3.org/2000/svg" xmlns:xlink="http://www.w3.org/1999/xlink" width="500" zoomAndPan="magnify" viewBox="0 0 375 374.999991" height="500" preserveAspectRatio="xMidYMid meet" version="1.0"><defs><g/><clipPath id="eb91fce92d"><path d="M 159 103.316406 L 287 103.316406 L 287 141 L 159 141 Z M 159 103.316406 " clip-rule="nonzero"/></clipPath><clipPath id="5752510e6d"><path d="M 51.140625 155 L 206 155 L 206 182 L 51.140625 182 Z M 51.140625 155 " clip-rule="nonzero"/></clipPath><clipPath id="0f2744688a"><path d="M 88 167 L 216 167 L 216 204.566406 L 88 204.566406 Z M 88 167 " clip-rule="nonzero"/></clipPath></defs><path fill="#63b1ce" d="M 157.613281 139.179688 C 158.699219 139.179688 159.582031 140.058594 159.582031 141.148438 C 159.582031 142.234375 158.699219 143.117188 157.613281 143.117188 C 156.523438 143.117188 155.644531 142.234375 155.644531 141.148438 C 155.644531 140.058594 156.523438 139.179688 157.613281 139.179688 Z M 287.804688 176.699219 C 288.890625 176.699219 289.773438 177.582031 289.773438 178.667969 C 289.773438 179.757812 288.890625 180.636719 287.804688 180.636719 C 286.714844 180.636719 285.835938 179.757812 285.835938 178.667969 C 285.835938 177.582031 286.714844 176.699219 287.804688 176.699219 Z M 171.261719 196.246094 C 170.175781 196.246094 169.292969 195.363281 169.292969 194.273438 C 169.292969 193.1875 170.175781 192.304688 171.261719 192.304688 C 172.351562 192.304688 173.230469 193.1875 173.230469 194.273438 C 173.230469 195.363281 172.351562 196.246094 171.261719 196.246094 Z M 157.613281 144.234375 C 159.035156 144.234375 160.230469 143.273438 160.589844 141.964844 L 207.476562 141.964844 L 243.363281 177.851562 L 232.171875 177.851562 L 216.5625 193.460938 L 174.238281 193.460938 C 173.878906 192.152344 172.683594 191.1875 171.261719 191.1875 C 169.558594 191.1875 168.175781 192.570312 168.175781 194.273438 C 168.175781 195.980469 169.558594 197.363281 171.261719 197.363281 C 172.628906 197.363281 173.785156 196.472656 174.191406 195.242188 L 217.300781 195.242188 L 232.910156 179.636719 L 284.875 179.636719 C 285.277344 180.863281 286.4375 181.753906 287.804688 181.753906 C 289.507812 181.753906 290.890625 180.371094 290.890625 178.667969 C 290.890625 176.960938 289.507812 175.582031 287.804688 175.582031 C 286.382812 175.582031 285.1875 176.542969 284.828125 177.851562 L 245.886719 177.851562 L 208.214844 140.179688 L 160.542969 140.179688 C 160.136719 138.949219 158.980469 138.0625 157.613281 138.0625 C 155.910156 138.0625 154.527344 139.445312 154.527344 141.148438 C 154.527344 142.851562 155.910156 144.234375 157.613281 144.234375 " fill-opacity="1" fill-rule="nonzero"/><path fill="#63b1ce" d="M 232.128906 130.875 L 180.753906 130.875 C 180.082031 128.5 177.902344 126.757812 175.3125 126.757812 C 172.191406 126.757812 169.660156 129.289062 169.660156 132.410156 C 169.660156 135.53125 172.191406 138.0625 175.3125 138.0625 C 177.71875 138.0625 179.769531 136.558594 180.585938 134.441406 L 230.652344 134.441406 L 245.425781 149.21875 L 312.824219 149.21875 C 313.640625 151.332031 315.691406 152.835938 318.097656 152.835938 C 321.21875 152.835938 323.75 150.304688 323.75 147.183594 C 323.75 144.0625 321.21875 141.53125 318.097656 141.53125 C 315.507812 141.53125 313.328125 143.273438 312.660156 145.648438 L 246.90625 145.648438 L 232.128906 130.875 " fill-opacity="1" fill-rule="nonzero"/><g clip-path="url(#eb91fce92d)"><path fill="#63b1ce" d="M 162.183594 104.433594 C 163.269531 104.433594 164.152344 105.316406 164.152344 106.40625 C 164.152344 107.492188 163.269531 108.375 162.183594 108.375 C 161.09375 108.375 160.214844 107.492188 160.214844 106.40625 C 160.214844 105.316406 161.09375 104.433594 162.183594 104.433594 Z M 283.808594 135.511719 C 284.894531 135.511719 285.777344 136.394531 285.777344 137.480469 C 285.777344 138.570312 284.894531 139.449219 283.808594 139.449219 C 282.71875 139.449219 281.835938 138.570312 281.835938 137.480469 C 281.835938 136.394531 282.71875 135.511719 283.808594 135.511719 Z M 191.429688 124.003906 C 190.339844 124.003906 189.460938 123.121094 189.460938 122.035156 C 189.460938 120.945312 190.339844 120.0625 191.429688 120.0625 C 192.515625 120.0625 193.398438 120.945312 193.398438 122.035156 C 193.398438 123.121094 192.515625 124.003906 191.429688 124.003906 Z M 162.183594 109.492188 C 163.605469 109.492188 164.800781 108.53125 165.160156 107.222656 L 207.484375 107.222656 L 221.328125 121.066406 L 194.359375 121.066406 C 193.953125 119.835938 192.796875 118.945312 191.429688 118.945312 C 189.726562 118.945312 188.34375 120.328125 188.34375 122.035156 C 188.34375 123.738281 189.726562 125.117188 191.429688 125.117188 C 192.851562 125.117188 194.046875 124.15625 194.40625 122.847656 L 236.730469 122.847656 L 252.335938 138.457031 L 280.878906 138.457031 C 281.289062 139.683594 282.445312 140.566406 283.808594 140.566406 C 285.511719 140.566406 286.894531 139.183594 286.894531 137.480469 C 286.894531 135.777344 285.511719 134.394531 283.808594 134.394531 C 282.382812 134.394531 281.183594 135.359375 280.828125 136.671875 L 253.078125 136.671875 L 237.46875 121.066406 L 236.738281 121.066406 L 236.738281 121.046875 L 223.832031 121.046875 L 208.222656 105.4375 L 165.113281 105.4375 C 164.707031 104.207031 163.550781 103.320312 162.183594 103.320312 C 160.476562 103.320312 159.097656 104.699219 159.097656 106.40625 C 159.097656 108.109375 160.476562 109.492188 162.183594 109.492188 " fill-opacity="1" fill-rule="nonzero"/></g><path fill="#63b1ce" d="M 267.183594 162.773438 L 245.390625 162.773438 L 232.160156 149.542969 L 218.839844 149.542969 L 220.625 151.328125 L 231.421875 151.328125 L 244.652344 164.558594 L 267.210938 164.558594 C 267.609375 165.800781 268.777344 166.703125 270.152344 166.703125 C 271.855469 166.703125 273.238281 165.320312 273.238281 163.617188 C 273.238281 161.914062 271.855469 160.53125 270.152344 160.53125 C 268.742188 160.53125 267.550781 161.480469 267.183594 162.773438 " fill-opacity="1" fill-rule="nonzero"/><path fill="#63b1ce" d="M 215.578125 151.328125 L 213.792969 149.542969 L 176.984375 149.542969 C 176.617188 148.25 175.429688 147.300781 174.015625 147.300781 C 172.3125 147.300781 170.929688 148.683594 170.929688 150.386719 C 170.929688 152.089844 172.3125 153.472656 174.015625 153.472656 C 175.394531 153.472656 176.558594 152.570312 176.957031 151.328125 L 215.578125 151.328125 " fill-opacity="1" fill-rule="nonzero"/><path fill="#63b1ce" d="M 217.375 168.882812 C 216.285156 168.882812 215.40625 168 215.40625 166.910156 C 215.40625 165.824219 216.285156 164.941406 217.375 164.941406 C 218.464844 164.941406 219.34375 165.824219 219.34375 166.910156 C 219.34375 168 218.464844 168.882812 217.375 168.882812 Z M 87.183594 131.363281 C 86.097656 131.363281 85.214844 130.480469 85.214844 129.390625 C 85.214844 128.304688 86.097656 127.421875 87.183594 127.421875 C 88.273438 127.421875 89.15625 128.304688 89.15625 129.390625 C 89.15625 130.480469 88.273438 131.363281 87.183594 131.363281 Z M 203.726562 111.8125 C 204.8125 111.8125 205.695312 112.695312 205.695312 113.785156 C 205.695312 114.871094 204.8125 115.753906 203.726562 115.753906 C 202.636719 115.753906 201.757812 114.871094 201.757812 113.785156 C 201.757812 112.695312 202.636719 111.8125 203.726562 111.8125 Z M 217.375 163.828125 C 215.953125 163.828125 214.757812 164.785156 214.398438 166.097656 L 167.511719 166.097656 L 131.625 130.207031 L 142.816406 130.207031 L 158.425781 114.601562 L 200.75 114.601562 C 201.109375 115.90625 202.304688 116.871094 203.726562 116.871094 C 205.429688 116.871094 206.8125 115.488281 206.8125 113.785156 C 206.8125 112.078125 205.429688 110.699219 203.726562 110.699219 C 202.359375 110.699219 201.203125 111.585938 200.796875 112.816406 L 157.6875 112.816406 L 142.078125 128.421875 L 90.117188 128.421875 C 89.710938 127.195312 88.550781 126.304688 87.183594 126.304688 C 85.480469 126.304688 84.097656 127.6875 84.097656 129.390625 C 84.097656 131.097656 85.480469 132.476562 87.183594 132.476562 C 88.605469 132.476562 89.804688 131.515625 90.160156 130.207031 L 129.101562 130.207031 L 166.773438 167.878906 L 214.445312 167.878906 C 214.851562 169.109375 216.007812 169.996094 217.375 169.996094 C 219.078125 169.996094 220.460938 168.617188 220.460938 166.910156 C 220.460938 165.207031 219.078125 163.828125 217.375 163.828125 " fill-opacity="1" fill-rule="nonzero"/><g clip-path="url(#5752510e6d)"><path fill="#63b1ce" d="M 142.859375 177.183594 L 194.238281 177.183594 C 194.90625 179.558594 197.085938 181.300781 199.675781 181.300781 C 202.796875 181.300781 205.328125 178.769531 205.328125 175.648438 C 205.328125 172.527344 202.796875 169.996094 199.675781 169.996094 C 197.269531 169.996094 195.21875 171.5 194.402344 173.617188 L 144.335938 173.617188 L 129.5625 158.839844 L 62.164062 158.839844 C 61.347656 156.726562 59.296875 155.222656 56.890625 155.222656 C 53.769531 155.222656 51.238281 157.753906 51.238281 160.875 C 51.238281 163.996094 53.769531 166.527344 56.890625 166.527344 C 59.480469 166.527344 61.660156 164.785156 62.328125 162.410156 L 128.085938 162.410156 L 142.859375 177.183594 " fill-opacity="1" fill-rule="nonzero"/></g><g clip-path="url(#0f2744688a)"><path fill="#63b1ce" d="M 212.804688 203.625 C 211.71875 203.625 210.835938 202.742188 210.835938 201.652344 C 210.835938 200.566406 211.71875 199.683594 212.804688 199.683594 C 213.894531 199.683594 214.777344 200.566406 214.777344 201.652344 C 214.777344 202.742188 213.894531 203.625 212.804688 203.625 Z M 91.183594 172.546875 C 90.09375 172.546875 89.210938 171.664062 89.210938 170.578125 C 89.210938 169.492188 90.09375 168.609375 91.183594 168.609375 C 92.269531 168.609375 93.152344 169.492188 93.152344 170.578125 C 93.152344 171.664062 92.269531 172.546875 91.183594 172.546875 Z M 183.558594 184.054688 C 184.648438 184.054688 185.527344 184.9375 185.527344 186.027344 C 185.527344 187.113281 184.648438 187.996094 183.558594 187.996094 C 182.472656 187.996094 181.589844 187.113281 181.589844 186.027344 C 181.589844 184.9375 182.472656 184.054688 183.558594 184.054688 Z M 212.804688 198.566406 C 211.386719 198.566406 210.1875 199.527344 209.828125 200.835938 L 167.507812 200.835938 L 153.664062 186.996094 L 180.628906 186.996094 C 181.035156 188.222656 182.191406 189.113281 183.558594 189.113281 C 185.265625 189.113281 186.644531 187.730469 186.644531 186.027344 C 186.644531 184.320312 185.265625 182.941406 183.558594 182.941406 C 182.136719 182.941406 180.941406 183.902344 180.582031 185.210938 L 138.257812 185.210938 L 122.652344 169.601562 L 94.109375 169.601562 C 93.703125 168.375 92.546875 167.492188 91.183594 167.492188 C 89.476562 167.492188 88.097656 168.875 88.097656 170.578125 C 88.097656 172.28125 89.476562 173.664062 91.183594 173.664062 C 92.605469 173.664062 93.804688 172.699219 94.160156 171.386719 L 121.910156 171.386719 L 137.519531 186.996094 L 138.25 186.996094 L 138.253906 187.011719 L 151.160156 187.011719 L 166.765625 202.621094 L 209.875 202.621094 C 210.28125 203.851562 211.441406 204.738281 212.804688 204.738281 C 214.511719 204.738281 215.890625 203.359375 215.890625 201.652344 C 215.890625 199.949219 214.511719 198.566406 212.804688 198.566406 " fill-opacity="1" fill-rule="nonzero"/></g><path fill="#63b1ce" d="M 107.804688 145.285156 L 129.597656 145.285156 L 142.828125 158.515625 L 156.148438 158.515625 L 154.367188 156.734375 L 143.566406 156.734375 L 130.335938 143.5 L 107.777344 143.5 C 107.378906 142.257812 106.210938 141.355469 104.835938 141.355469 C 103.132812 141.355469 101.75 142.738281 101.75 144.441406 C 101.75 146.144531 103.132812 147.527344 104.835938 147.527344 C 106.246094 147.527344 107.4375 146.578125 107.804688 145.285156 " fill-opacity="1" fill-rule="nonzero"/><path fill="#63b1ce" d="M 159.410156 156.734375 L 161.195312 158.515625 L 198.003906 158.515625 C 198.371094 159.808594 199.5625 160.757812 200.972656 160.757812 C 202.675781 160.757812 204.058594 159.375 204.058594 157.671875 C 204.058594 155.96875 202.675781 154.585938 200.972656 154.585938 C 199.597656 154.585938 198.429688 155.488281 198.03125 156.734375 L 159.410156 156.734375 " fill-opacity="1" fill-rule="nonzero"/><g fill="#004aad" fill-opacity="1"><g transform="translate(112.267775, 236.3447)"><g><path d="M 12.75 -6.65625 C 12.75 -4.59375 12.253906 -2.96875 11.265625 -1.78125 C 10.285156 -0.59375 8.765625 0 6.703125 0 L 1.421875 0 L 1.421875 -13.515625 L 6.734375 -13.515625 C 10.742188 -13.515625 12.75 -11.226562 12.75 -6.65625 Z M 9.9375 -6.75 C 9.9375 -7.851562 9.804688 -8.734375 9.546875 -9.390625 C 9.296875 -10.046875 8.90625 -10.515625 8.375 -10.796875 C 7.851562 -11.085938 7.160156 -11.234375 6.296875 -11.234375 L 4.140625 -11.234375 L 4.140625 -2.28125 L 6.328125 -2.28125 C 7.234375 -2.28125 7.945312 -2.421875 8.46875 -2.703125 C 8.988281 -2.984375 9.363281 -3.445312 9.59375 -4.09375 C 9.820312 -4.738281 9.9375 -5.625 9.9375 -6.75 Z M 9.9375 -6.75 "/></g></g></g><g fill="#004aad" fill-opacity="1"><g transform="translate(140.951382, 236.3447)"><g><path d="M 4.140625 -11.234375 L 4.140625 -8.140625 L 9.828125 -8.140625 L 9.828125 -5.859375 L 4.140625 -5.859375 L 4.140625 -2.28125 L 10.65625 -2.28125 L 10.65625 0 L 1.421875 0 L 1.421875 -13.515625 L 10.328125 -13.515625 L 10.328125 -11.234375 Z M 4.140625 -11.234375 "/></g></g></g><g fill="#004aad" fill-opacity="1"><g transform="translate(167.624171, 236.3447)"><g><path d="M 11.25 -9.359375 C 11.25 -7.898438 10.832031 -6.820312 10 -6.125 C 9.175781 -5.4375 7.910156 -5.09375 6.203125 -5.09375 L 4.140625 -5.09375 L 4.140625 0 L 1.421875 0 L 1.421875 -13.515625 L 6.203125 -13.515625 C 7.941406 -13.515625 9.21875 -13.164062 10.03125 -12.46875 C 10.84375 -11.769531 11.25 -10.734375 11.25 -9.359375 Z M 8.421875 -9.3125 C 8.421875 -9.925781 8.234375 -10.398438 7.859375 -10.734375 C 7.492188 -11.066406 6.925781 -11.234375 6.15625 -11.234375 L 4.140625 -11.234375 L 4.140625 -7.375 L 6.15625 -7.375 C 6.96875 -7.375 7.546875 -7.535156 7.890625 -7.859375 C 8.242188 -8.191406 8.421875 -8.675781 8.421875 -9.3125 Z M 8.421875 -9.3125 "/></g></g></g><g fill="#004aad" fill-opacity="1"><g transform="translate(194.610574, 236.3447)"><g><path d="M 10.1875 -2.28125 L 10.1875 0 L 1.421875 0 L 1.421875 -13.515625 L 4.140625 -13.515625 L 4.140625 -2.28125 Z M 10.1875 -2.28125 "/></g></g></g><g fill="#004aad" fill-opacity="1"><g transform="translate(220.407088, 236.3447)"><g><path d="M 0.8125 -6.6875 C 0.8125 -8.113281 1.078125 -9.359375 1.609375 -10.421875 C 2.148438 -11.484375 2.921875 -12.300781 3.921875 -12.875 C 4.921875 -13.457031 6.082031 -13.75 7.40625 -13.75 C 8.738281 -13.75 9.898438 -13.457031 10.890625 -12.875 C 11.890625 -12.300781 12.660156 -11.484375 13.203125 -10.421875 C 13.742188 -9.367188 14.015625 -8.144531 14.015625 -6.75 C 14.015625 -5.375 13.75 -4.160156 13.21875 -3.109375 C 12.6875 -2.054688 11.925781 -1.234375 10.9375 -0.640625 C 9.945312 -0.0546875 8.78125 0.234375 7.4375 0.234375 C 6.101562 0.234375 4.929688 -0.0546875 3.921875 -0.640625 C 2.921875 -1.222656 2.148438 -2.035156 1.609375 -3.078125 C 1.078125 -4.128906 0.8125 -5.332031 0.8125 -6.6875 Z M 7.40625 -11.40625 C 6.632812 -11.40625 5.960938 -11.207031 5.390625 -10.8125 C 4.816406 -10.414062 4.378906 -9.863281 4.078125 -9.15625 C 3.785156 -8.457031 3.640625 -7.660156 3.640625 -6.765625 C 3.640625 -5.859375 3.785156 -5.050781 4.078125 -4.34375 C 4.367188 -3.644531 4.800781 -3.097656 5.375 -2.703125 C 5.945312 -2.304688 6.628906 -2.109375 7.421875 -2.109375 C 8.203125 -2.109375 8.875 -2.304688 9.4375 -2.703125 C 10.007812 -3.097656 10.445312 -3.648438 10.75 -4.359375 C 11.050781 -5.066406 11.203125 -5.878906 11.203125 -6.796875 C 11.203125 -7.679688 11.050781 -8.472656 10.75 -9.171875 C 10.445312 -9.867188 10.007812 -10.414062 9.4375 -10.8125 C 8.875 -11.207031 8.195312 -11.40625 7.40625 -11.40625 Z M 7.40625 -11.40625 "/></g></g></g><g fill="#004aad" fill-opacity="1"><g transform="translate(250.354375, 236.3447)"><g><path d="M 6.203125 -7.953125 L 6.25 -7.953125 C 6.488281 -8.484375 6.816406 -9.125 7.234375 -9.875 L 9.265625 -13.515625 L 12.40625 -13.515625 L 7.53125 -5.65625 L 7.53125 0 L 4.8125 0 L 4.8125 -5.6875 L -0.046875 -13.515625 L 3.140625 -13.515625 L 5.21875 -9.875 C 5.613281 -9.175781 5.941406 -8.535156 6.203125 -7.953125 Z M 6.203125 -7.953125 "/></g></g></g><g fill="#000000" fill-opacity="1"><g transform="translate(148.391201, 259.29719)"><g><path d="M 5.6875 -9.140625 C 5.09375 -9.140625 4.582031 -8.976562 4.15625 -8.65625 C 3.738281 -8.34375 3.425781 -7.910156 3.21875 -7.359375 C 3.007812 -6.804688 2.90625 -6.171875 2.90625 -5.453125 C 2.90625 -4.691406 3.007812 -4.023438 3.21875 -3.453125 C 3.4375 -2.890625 3.753906 -2.453125 4.171875 -2.140625 C 4.585938 -1.835938 5.082031 -1.6875 5.65625 -1.6875 C 6.0625 -1.6875 6.4375 -1.773438 6.78125 -1.953125 C 7.125 -2.128906 7.414062 -2.382812 7.65625 -2.71875 C 7.90625 -3.050781 8.085938 -3.441406 8.203125 -3.890625 L 10.359375 -3.375 C 10.191406 -2.65625 9.898438 -2.03125 9.484375 -1.5 C 9.066406 -0.96875 8.535156 -0.550781 7.890625 -0.25 C 7.253906 0.0390625 6.53125 0.1875 5.71875 0.1875 C 4.65625 0.1875 3.742188 -0.0351562 2.984375 -0.484375 C 2.222656 -0.941406 1.644531 -1.597656 1.25 -2.453125 C 0.851562 -3.304688 0.65625 -4.320312 0.65625 -5.5 C 0.65625 -6.625 0.859375 -7.601562 1.265625 -8.4375 C 1.679688 -9.269531 2.269531 -9.90625 3.03125 -10.34375 C 3.789062 -10.789062 4.6875 -11.015625 5.71875 -11.015625 C 6.894531 -11.015625 7.863281 -10.742188 8.625 -10.203125 C 9.394531 -9.671875 9.929688 -8.878906 10.234375 -7.828125 L 8.078125 -7.3125 C 7.722656 -8.53125 6.925781 -9.140625 5.6875 -9.140625 Z M 5.6875 -9.140625 "/></g></g></g><g fill="#000000" fill-opacity="1"><g transform="translate(166.918143, 259.29719)"><g><path d="M 7.59375 -6.65625 L 7.59375 -10.828125 L 9.765625 -10.828125 L 9.765625 0 L 7.59375 0 L 7.59375 -4.828125 L 3.3125 -4.828125 L 3.3125 0 L 1.140625 0 L 1.140625 -10.828125 L 3.3125 -10.828125 L 3.3125 -6.65625 Z M 7.59375 -6.65625 "/></g></g></g><g fill="#000000" fill-opacity="1"><g transform="translate(185.386034, 259.29719)"><g><path d="M 8.375 0 L 7.421875 -2.453125 L 3.25 -2.453125 L 2.359375 0 L 0.03125 0 L 4.25 -10.828125 L 6.40625 -10.828125 L 10.75 0 Z M 4.8125 -6.734375 L 3.921875 -4.28125 L 6.734375 -4.28125 L 5.8125 -6.734375 C 5.695312 -7.046875 5.59375 -7.363281 5.5 -7.6875 C 5.414062 -8.019531 5.359375 -8.289062 5.328125 -8.5 L 5.265625 -8.5 C 5.171875 -7.90625 5.019531 -7.316406 4.8125 -6.734375 Z M 4.8125 -6.734375 "/></g></g></g><g fill="#000000" fill-opacity="1"><g transform="translate(203.72844, 259.29719)"><g><path d="M 1.140625 0 L 1.140625 -10.828125 L 3.3125 -10.828125 L 3.3125 0 Z M 1.140625 0 "/></g></g></g><g fill="#000000" fill-opacity="1"><g transform="translate(215.744953, 259.29719)"><g><path d="M 7.6875 -10.828125 L 9.71875 -10.828125 L 9.71875 0 L 7.515625 0 L 3.171875 -7.0625 L 3.171875 0 L 1.140625 0 L 1.140625 -10.828125 L 3.25 -10.828125 L 7.6875 -3.59375 Z M 7.6875 -10.828125 "/></g></g></g></svg>